<?xml version="1.0" encoding="UTF-8"?>
<svg id="Layer_1" data-name="Layer 1" xmlns="http://www.w3.org/2000/svg" viewBox="0 0 1080 1080">
  <defs>
    <style>
      .cls-1, .cls-2, .cls-3 {
        stroke-width: 0px;
      }

      .cls-2 {
        fill: #231f20;
      }

      .cls-3 {
        fill: #ed2024;
      }
    </style>
  </defs>
  <circle class="cls-1" cx="194.78" cy="196.66" r="34.73"/>
  <circle class="cls-1" cx="111.9" cy="763.55" r="43.16"/>
  <circle class="cls-1" cx="976.53" cy="460.39" r="34.73"/>
  <g>
    <circle class="cls-3" cx="504.81" cy="565.15" r="126.54"/>
    <g>
      <path class="cls-2" d="m695.88,463.59c24.56,46.22,30.67,97.33,20.92,144.89l130.51,41.1c20.09-81.37,11.44-170.15-30.99-249.99-38.15-71.8-97.59-125.01-166.4-156.02l-49.12,127.62c39.23,19.39,72.97,50.81,95.07,92.4Z"/>
      <path class="cls-2" d="m313.58,666.73c-9.89-18.62-16.78-38.04-20.86-57.69l-136.14,14.09c6.11,36.66,18.15,72.98,36.55,107.61,88.16,165.92,289.9,232.62,458.49,155.24l-64.18-120.78c-101.86,42.26-221.07.9-273.87-98.47Z"/>
      <path class="cls-2" d="m288.25,567.64c-.83-78.31,40.98-154.35,114.91-193.63,50.74-26.96,107.37-31.69,158.73-17.62l49.14-127.67c-87.13-27.52-184.81-21.42-271.87,24.84-124.45,66.13-193.07,196.15-186.96,328.16l136.05-14.08Z"/>
      <path class="cls-3" d="m688.4,866.44c69.57-42.33,119.7-105.49,146.6-177.08l-130.41-41.07c-16.08,38.71-43.41,72.98-80.37,97.38l64.18,120.78Z"/>
    </g>
  </g>
</svg>