<?xml version="1.0" encoding="UTF-8"?>
<svg id="Layer_1" data-name="Layer 1" xmlns="http://www.w3.org/2000/svg" viewBox="0 0 1920 681.33">
  <defs>
    <style>
      .cls-1, .cls-2, .cls-3 {
        stroke-width: 0px;
      }

      .cls-2 {
        fill: #231f20;
      }

      .cls-3 {
        fill: #ed2024;
      }
    </style>
  </defs>
  <g>
    <g>
      <path class="cls-2" d="m1223.2,419.12v-46.47h199.93v46.47h-76.64v165.12h-46.64v-165.12h-76.64Z"/>
      <path class="cls-2" d="m1368.08,584.23l111.96-212.27,111.97,212.27h-56.41l-55.73-109.39-57.27,109.39h-54.52Z"/>
      <path class="cls-2" d="m1653.74,372.48v165.29h121.39v46.47h-168.03v-211.75h46.64Z"/>
    </g>
    <g>
      <path class="cls-2" d="m1040.72,537.6h-32.01v-9.98l-46.64-14.53v71.15h119.68c17.83,0,33.03-6.31,45.61-18.95.18-.18.34-.36.51-.54l-87.15-27.15Z"/>
      <path class="cls-2" d="m1008.7,510.54v-8.78h73.04c5.03,0,9.29,1.74,12.77,5.23,3.49,3.49,5.23,7.69,5.23,12.6s-1.78,9.29-5.32,12.77c-1.46,1.44-3.05,2.57-4.75,3.41l48.62,15.15c5.26-9.36,7.91-19.8,7.91-31.33,0-9.14-1.83-17.83-5.49-26.06-3.66-8.23-8.8-15.37-15.43-21.43,6.86-10.4,10.29-22.06,10.29-34.98,0-17.94-6.29-33.2-18.86-45.78-12.58-12.57-27.84-18.86-45.78-18.86h-108.88v123.53l46.64,14.53Zm0-91.43h62.41c4.91,0,9.11,1.74,12.6,5.23,3.49,3.49,5.23,7.75,5.23,12.77s-1.74,9.29-5.23,12.77c-3.49,3.49-7.69,5.23-12.6,5.23h-62.41v-36.01Z"/>
    </g>
    <g>
      <polygon class="cls-2" points="1208.11 572.68 1208.11 372.48 1161.47 372.48 1161.47 558.15 1208.11 572.68"/>
      <polygon class="cls-2" points="1161.47 575.22 1161.47 584.23 1190.39 584.23 1186.89 583.14 1161.47 575.22"/>
    </g>
    <g>
      <path class="cls-2" d="m811.52,449.1v-29.99h65.5c4.91,0,9.14,1.77,12.69,5.31,3.54,3.55,5.32,7.78,5.32,12.69s-1.78,9.15-5.32,12.69c-3.54,3.55-7.77,5.32-12.69,5.32h-46.18l91.15,28.4c4.73-4.56,8.68-9.83,11.87-15.8,5.08-9.54,7.63-19.74,7.63-30.61,0-17.94-6.29-33.2-18.86-45.78-12.58-12.57-27.78-18.86-45.61-18.86h-112.14v62.09l46.64,14.53Z"/>
      <polygon class="cls-2" points="764.88 451.65 764.88 584.23 811.52 584.23 811.52 501.59 869.3 501.59 899.48 584.23 946.63 584.23 915.45 498.56 764.88 451.65"/>
    </g>
  </g>
  <g>
    <circle class="cls-1" cx="225" cy="64.31" r="26.01"/>
    <circle class="cls-1" cx="162.94" cy="488.83" r="32.32"/>
    <circle class="cls-1" cx="810.42" cy="261.81" r="26.01"/>
    <g>
      <circle class="cls-3" cx="457.17" cy="340.26" r="94.76"/>
      <g>
        <path class="cls-2" d="m600.26,264.2c18.39,34.61,22.97,72.88,15.67,108.5l97.74,30.78c15.04-60.94,8.56-127.42-23.21-187.21-28.57-53.77-73.08-93.61-124.61-116.84l-36.78,95.57c29.38,14.52,54.64,38.05,71.19,69.2Z"/>
        <path class="cls-2" d="m313.97,416.33c-7.41-13.94-12.57-28.48-15.62-43.2l-101.95,10.55c4.57,27.45,13.59,54.65,27.37,80.58,66.02,124.25,217.1,174.2,343.34,116.25l-48.06-90.44c-76.28,31.65-165.55.68-205.09-73.74Z"/>
        <path class="cls-2" d="m295,342.12c-.62-58.64,30.69-115.59,86.05-145,38-20.19,80.4-23.73,118.87-13.19l36.8-95.61c-65.25-20.61-138.4-16.04-203.59,18.6-93.19,49.52-144.58,146.89-140,245.74l101.88-10.54Z"/>
        <path class="cls-3" d="m594.65,565.88c52.1-31.7,89.64-79,109.78-132.61l-97.66-30.76c-12.04,28.99-32.51,54.65-60.18,72.92l48.06,90.44Z"/>
      </g>
    </g>
  </g>
</svg>