<?xml version="1.0" encoding="UTF-8"?>
<svg id="Layer_1" data-name="Layer 1" xmlns="http://www.w3.org/2000/svg" viewBox="0 0 1920 479.6">
  <defs>
    <style>
      .cls-1 {
        fill: #231f20;
      }

      .cls-1, .cls-2 {
        stroke-width: 0px;
      }

      .cls-2 {
        fill: #ed2024;
      }
    </style>
  </defs>
  <g>
    <g>
      <path class="cls-1" d="m1396.49,184.78v146.73h103.56l-22.39,41.25h-122.57v-187.98h41.4Z"/>
      <path class="cls-1" d="m1863.51,242.17c0,11.47-3.04,21.82-9.13,31.05,5.88,5.38,10.45,11.72,13.7,19.03,3.25,7.31,4.87,15.02,4.87,23.14,0,15.83-5.58,29.35-16.74,40.56-11.16,11.21-24.66,16.82-40.49,16.82h-99.8l-6.44-12.16v-175.82h96.65c15.93,0,29.48,5.58,40.64,16.74,11.16,11.16,16.74,24.71,16.74,40.64Zm-112.64,15.98h55.4c4.36,0,8.09-1.55,11.19-4.64,3.09-3.09,4.64-6.87,4.64-11.34s-1.55-8.24-4.64-11.34c-3.1-3.09-6.83-4.64-11.19-4.64h-55.4v31.96Zm80.82,57.23c0-4.36-1.55-8.09-4.64-11.19-3.1-3.09-6.88-4.64-11.34-4.64h-64.84v31.81h64.84c4.36,0,8.12-1.55,11.26-4.64,3.14-3.09,4.72-6.87,4.72-11.34Z"/>
    </g>
    <path class="cls-2" d="m1509.58,372.76l98.04-185.87,98.04,185.87h-49.4l-48.8-95.79-50.15,95.79h-47.74Z"/>
  </g>
  <g>
    <g>
      <path class="cls-1" d="m791.78,225.93v-41.32h177.79v41.32h-68.16v146.84h-41.48v-146.84h-68.16Z"/>
      <path class="cls-1" d="m920.63,372.76l99.57-188.77,99.57,188.77h-50.17l-49.56-97.28-50.93,97.28h-48.49Z"/>
      <path class="cls-1" d="m1174.66,184.45v146.99h107.95v41.32h-149.43v-188.31h41.48Z"/>
    </g>
    <g>
      <path class="cls-1" d="m629.5,331.29h-28.47v-8.87l-41.48-12.92v63.27h106.43c15.86,0,29.38-5.62,40.56-16.85.16-.16.3-.32.45-.48l-77.5-24.15Z"/>
      <path class="cls-1" d="m601.03,307.23v-7.81h64.96c4.47,0,8.26,1.55,11.36,4.65,3.1,3.1,4.65,6.84,4.65,11.21s-1.58,8.26-4.73,11.36c-1.3,1.28-2.71,2.28-4.22,3.03l43.24,13.47c4.68-8.32,7.03-17.61,7.03-27.87,0-8.13-1.63-15.86-4.88-23.18-3.25-7.32-7.83-13.67-13.72-19.06,6.1-9.25,9.15-19.62,9.15-31.11,0-15.96-5.59-29.53-16.77-40.71-11.18-11.18-24.75-16.77-40.71-16.77h-96.82v109.86l41.48,12.92Zm0-81.31h55.5c4.37,0,8.1,1.55,11.21,4.65,3.1,3.1,4.65,6.89,4.65,11.36s-1.55,8.26-4.65,11.36c-3.1,3.1-6.84,4.65-11.21,4.65h-55.5v-32.02Z"/>
    </g>
    <g>
      <polygon class="cls-1" points="778.36 362.49 778.36 184.45 736.89 184.45 736.89 349.56 778.36 362.49"/>
      <polygon class="cls-1" points="736.89 364.75 736.89 372.76 762.6 372.76 736.89 364.75"/>
    </g>
    <g>
      <path class="cls-1" d="m425.68,252.59v-26.67h58.25c4.37,0,8.13,1.58,11.28,4.73,3.15,3.15,4.73,6.91,4.73,11.28s-1.58,8.13-4.73,11.28c-3.15,3.15-6.91,4.73-11.28,4.73h-41.07l81.06,25.26c4.2-4.06,7.72-8.74,10.55-14.05,4.52-8.49,6.78-17.56,6.78-27.22,0-15.96-5.59-29.53-16.77-40.71-11.18-11.18-24.7-16.77-40.56-16.77h-99.72v55.22l41.48,12.92Z"/>
      <polygon class="cls-1" points="384.2 254.86 384.2 372.76 425.68 372.76 425.68 299.27 477.06 299.27 503.9 372.76 545.83 372.76 518.1 296.58 384.2 254.86"/>
    </g>
    <g>
      <path class="cls-1" d="m348.17,172.3c-12.05-20.61-28.38-36.94-48.99-48.99-20.62-12.05-43.12-18.07-67.51-18.07s-46.89,6.03-67.5,18.07c-20.21,11.81-36.27,27.76-48.25,47.8,2.59-4.33,5.37-8.48,8.35-12.43l63.42,19.76c12.74-9.45,27.4-14.2,43.99-14.2,20.76,0,38.54,7.4,53.35,22.21,14.81,14.81,22.21,32.59,22.21,53.35s-7.4,38.51-22.21,53.24c-14.81,14.74-32.59,22.1-53.35,22.1s-38.51-7.37-53.24-22.1c-14.74-14.73-22.1-32.48-22.1-53.24,0-19.28,6.36-35.99,19.08-50.14l-59.5-18.54c-.24.4-.5.77-.74,1.17-12.05,20.62-18.07,43.12-18.07,67.51s6.02,46.89,18.07,67.51c12.05,20.61,28.38,36.95,49,48.99,20.61,12.05,43.11,18.07,67.5,18.07s46.89-6.03,67.51-18.07c20.61-12.05,36.94-28.38,48.99-48.99,12.05-20.61,18.08-43.12,18.08-67.51s-6.03-46.89-18.08-67.51Z"/>
      <path class="cls-1" d="m180.93,184.05c-.84.78-1.68,1.57-2.5,2.4-.02.02-.03.04-.05.06.02-.02.03-.04.05-.06.82-.83,1.66-1.62,2.5-2.4Z"/>
      <path class="cls-1" d="m183.38,181.87c-.43.37-.85.74-1.27,1.12.42-.38.84-.75,1.27-1.12Z"/>
      <path class="cls-1" d="m185.76,179.92c-.26.21-.52.41-.78.62.26-.21.52-.42.78-.62Z"/>
    </g>
    <path class="cls-2" d="m47.05,149.75l59.5,18.54c.97-1.08,1.98-2.16,3.02-3.21,2.96-2.98,6.05-5.64,9.25-8.02l-63.42-19.76c-2.98,3.96-5.77,8.11-8.36,12.45Z"/>
  </g>
</svg>