<?xml version="1.0" encoding="UTF-8"?>
<svg id="Layer_1" data-name="Layer 1" xmlns="http://www.w3.org/2000/svg" viewBox="0 0 1920 609.43">
  <defs>
    <style>
      .cls-1, .cls-2, .cls-3 {
        stroke-width: 0px;
      }

      .cls-2 {
        fill: #231f20;
      }

      .cls-3 {
        fill: #ed2024;
      }
    </style>
  </defs>
  <g>
    <g>
      <g>
        <path class="cls-2" d="m464.15,325.26v146.64h103.5l-22.38,41.22h-122.49v-187.86h41.38Z"/>
        <path class="cls-2" d="m930.88,382.61c0,11.46-3.04,21.8-9.13,31.03,5.88,5.38,10.44,11.71,13.69,19.01,3.24,7.3,4.87,15.01,4.87,23.12,0,15.82-5.58,29.33-16.73,40.54-11.16,11.21-24.64,16.81-40.46,16.81h-99.74l-6.44-12.16v-175.71h96.59c15.92,0,29.46,5.58,40.61,16.73,11.15,11.16,16.73,24.7,16.73,40.62Zm-112.57,15.97h55.37c4.36,0,8.09-1.54,11.18-4.64,3.09-3.09,4.64-6.87,4.64-11.33s-1.55-8.24-4.64-11.33c-3.09-3.09-6.82-4.64-11.18-4.64h-55.37v31.94Zm80.77,57.2c0-4.36-1.55-8.09-4.64-11.18-3.09-3.09-6.87-4.64-11.33-4.64h-64.8v31.79h64.8c4.36,0,8.11-1.55,11.26-4.64,3.14-3.09,4.72-6.87,4.72-11.33Z"/>
      </g>
      <path class="cls-3" d="m577.16,513.13l97.98-185.76,97.98,185.76h-49.36l-48.77-95.73-50.12,95.73h-47.71Z"/>
    </g>
    <g>
      <g>
        <path class="cls-2" d="m726.4,200.13v-30.78h132.45v30.78h-50.78v109.39h-30.9v-109.39h-50.78Z"/>
        <path class="cls-2" d="m822.39,309.51l74.17-140.63,74.18,140.63h-37.37l-36.92-72.47-37.94,72.47h-36.12Z"/>
        <path class="cls-2" d="m1011.63,169.23v109.5h80.42v30.78h-111.32v-140.28h30.9Z"/>
      </g>
      <g>
        <path class="cls-2" d="m605.51,278.62h-21.21v-6.61l-30.9-9.63v47.13h79.29c11.81,0,21.88-4.18,30.22-12.55.12-.12.22-.24.34-.36l-57.73-17.99Z"/>
        <path class="cls-2" d="m584.3,260.7v-5.82h48.39c3.33,0,6.15,1.16,8.46,3.46,2.31,2.31,3.47,5.09,3.47,8.35s-1.18,6.15-3.52,8.46c-.97.95-2.02,1.7-3.15,2.26l32.21,10.04c3.49-6.2,5.24-13.12,5.24-20.76,0-6.06-1.21-11.81-3.63-17.27-2.42-5.45-5.83-10.18-10.22-14.2,4.54-6.89,6.82-14.61,6.82-23.17,0-11.89-4.17-22-12.5-30.33-8.33-8.33-18.44-12.5-30.33-12.5h-72.13v81.84l30.9,9.63Zm0-60.57h41.35c3.25,0,6.04,1.16,8.35,3.46,2.31,2.31,3.46,5.13,3.46,8.46s-1.15,6.15-3.46,8.46c-2.31,2.31-5.09,3.47-8.35,3.47h-41.35v-23.85Z"/>
      </g>
      <g>
        <polygon class="cls-2" points="716.41 301.86 716.41 169.23 685.51 169.23 685.51 292.23 716.41 301.86"/>
        <polygon class="cls-2" points="685.51 303.54 685.51 309.51 704.67 309.51 685.51 303.54"/>
      </g>
      <g>
        <path class="cls-2" d="m453.67,219.99v-19.87h43.39c3.25,0,6.06,1.18,8.41,3.52,2.35,2.35,3.52,5.15,3.52,8.41s-1.18,6.06-3.52,8.41c-2.35,2.35-5.15,3.52-8.41,3.52h-30.59l60.39,18.82c3.13-3.02,5.75-6.51,7.86-10.47,3.37-6.32,5.05-13.08,5.05-20.28,0-11.89-4.17-22-12.49-30.33-8.33-8.33-18.4-12.5-30.22-12.5h-74.29v41.14l30.9,9.63Z"/>
        <polygon class="cls-2" points="422.77 221.68 422.77 309.51 453.67 309.51 453.67 254.76 491.95 254.76 511.94 309.51 543.18 309.51 522.52 252.76 422.77 221.68"/>
      </g>
      <g>
        <path class="cls-2" d="m395.93,160.17c-8.98-15.36-21.14-27.52-36.5-36.5-15.36-8.98-32.12-13.46-50.29-13.46s-34.93,4.49-50.29,13.46c-15.05,8.8-27.02,20.68-35.94,35.61,1.93-3.23,4-6.32,6.22-9.26l47.24,14.72c9.49-7.04,20.41-10.58,32.77-10.58,15.47,0,28.71,5.52,39.75,16.55,11.03,11.03,16.55,24.28,16.55,39.74s-5.52,28.69-16.55,39.66c-11.03,10.98-24.28,16.47-39.75,16.47s-28.69-5.49-39.66-16.47c-10.98-10.97-16.46-24.2-16.46-39.66,0-14.36,4.74-26.81,14.21-37.35l-44.33-13.81c-.18.3-.37.57-.55.87-8.98,15.36-13.46,32.12-13.46,50.29s4.49,34.93,13.46,50.29c8.97,15.36,21.14,27.52,36.5,36.5,15.36,8.98,32.12,13.46,50.29,13.46s34.93-4.49,50.29-13.46c15.35-8.97,27.52-21.14,36.5-36.5,8.98-15.36,13.47-32.12,13.47-50.29s-4.49-34.93-13.47-50.29Z"/>
        <path class="cls-2" d="m271.34,168.93c-.63.58-1.25,1.17-1.86,1.79-.01.01-.03.03-.04.04.01-.01.03-.03.04-.04.61-.62,1.23-1.21,1.86-1.79Z"/>
        <path class="cls-2" d="m273.17,167.31c-.32.27-.63.55-.95.83.31-.28.63-.56.95-.83Z"/>
        <path class="cls-2" d="m274.94,165.85c-.19.15-.39.31-.58.46.19-.16.39-.31.58-.46Z"/>
      </g>
      <path class="cls-3" d="m171.61,143.38l44.33,13.81c.73-.81,1.47-1.61,2.25-2.39,2.21-2.22,4.51-4.2,6.89-5.97l-47.24-14.72c-2.22,2.95-4.3,6.04-6.23,9.27Z"/>
    </g>
  </g>
  <g>
    <circle class="cls-1" cx="1266.21" cy="89.88" r="22.44"/>
    <circle class="cls-1" cx="1212.67" cy="456.07" r="27.88"/>
    <circle class="cls-1" cx="1771.21" cy="260.24" r="22.44"/>
    <g>
      <circle class="cls-3" cx="1466.48" cy="327.92" r="81.74"/>
      <g>
        <path class="cls-2" d="m1589.91,262.31c15.87,29.86,19.81,62.87,13.52,93.59l84.31,26.55c12.98-52.56,7.39-109.91-20.02-161.49-24.65-46.38-63.04-80.75-107.49-100.78l-31.73,82.44c25.34,12.53,47.14,32.82,61.41,59.69Z"/>
        <path class="cls-2" d="m1342.96,393.54c-6.39-12.03-10.84-24.57-13.48-37.27l-87.94,9.1c3.95,23.68,11.72,47.14,23.61,69.51,56.95,107.18,187.27,150.27,296.18,100.28l-41.46-78.02c-65.8,27.3-142.8.58-176.91-63.61Z"/>
        <path class="cls-2" d="m1326.59,329.52c-.54-50.58,26.48-99.71,74.23-125.08,32.78-17.42,69.36-20.47,102.54-11.38l31.74-82.47c-56.28-17.78-119.39-13.84-175.62,16.05-80.39,42.72-124.72,126.71-120.77,211.98l87.88-9.1Z"/>
        <path class="cls-3" d="m1585.08,522.54c44.94-27.34,77.32-68.15,94.7-114.39l-84.24-26.53c-10.38,25-28.04,47.14-51.91,62.9l41.46,78.02Z"/>
      </g>
    </g>
  </g>
</svg>