<?xml version="1.0" encoding="UTF-8"?>
<svg id="Layer_1" data-name="Layer 1" xmlns="http://www.w3.org/2000/svg" viewBox="0 0 1080 1350">
  <defs>
    <style>
      .cls-1, .cls-2, .cls-3 {
        stroke-width: 0px;
      }

      .cls-2 {
        fill: #231f20;
      }

      .cls-3 {
        fill: #ed2024;
      }
    </style>
  </defs>
  <g>
    <circle class="cls-1" cx="370.49" cy="214.81" r="23.33"/>
    <circle class="cls-1" cx="323.84" cy="611.54" r="23.33"/>
    <circle class="cls-1" cx="891.61" cy="384.62" r="23.33"/>
    <g>
      <circle class="cls-3" cx="574.81" cy="454.98" r="84.98"/>
      <g>
        <path class="cls-2" d="m703.13,386.77c16.49,31.04,20.6,65.36,14.05,97.3l87.65,27.6c13.49-54.65,7.68-114.27-20.81-167.89-25.62-48.22-65.54-83.95-111.75-104.78l-32.99,85.7c26.34,13.02,49,34.12,63.84,62.06Z"/>
        <path class="cls-2" d="m446.39,523.19c-6.65-12.51-11.27-25.54-14.01-38.75l-91.42,9.46c4.1,24.62,12.19,49.01,24.55,72.27,59.21,111.42,194.69,156.22,307.91,104.25l-43.1-81.11c-68.41,28.38-148.46.61-183.92-66.13Z"/>
        <path class="cls-2" d="m429.38,456.65c-.56-52.59,27.52-103.66,77.17-130.04,34.08-18.11,72.1-21.28,106.6-11.83l33-85.74c-58.51-18.48-124.12-14.38-182.58,16.68-83.57,44.41-129.66,131.73-125.55,220.38l91.36-9.46Z"/>
        <path class="cls-3" d="m698.1,657.31c46.72-28.43,80.39-70.85,98.45-118.92l-87.58-27.58c-10.8,25.99-29.15,49.01-53.97,65.4l43.1,81.11Z"/>
      </g>
    </g>
  </g>
  <g>
    <g>
      <g>
        <path class="cls-2" d="m360.49,957.39v156.99h110.8l-23.96,44.13h-131.14v-201.12h44.3Z"/>
        <path class="cls-2" d="m860.15,1018.79c0,12.27-3.26,23.34-9.77,33.22,6.3,5.76,11.18,12.54,14.66,20.36,3.47,7.82,5.21,16.07,5.21,24.75,0,16.94-5.97,31.4-17.91,43.4-11.94,12-26.38,18-43.32,18h-106.78l-6.89-13.01v-188.11h103.41c17.04,0,31.54,5.97,43.48,17.91,11.94,11.94,17.91,26.44,17.91,43.48Zm-120.51,17.1h59.28c4.67,0,8.66-1.65,11.97-4.97,3.31-3.31,4.97-7.35,4.97-12.13s-1.66-8.82-4.97-12.13c-3.31-3.31-7.3-4.97-11.97-4.97h-59.28v34.2Zm86.47,61.23c0-4.67-1.66-8.66-4.97-11.97-3.31-3.31-7.36-4.97-12.13-4.97h-69.37v34.04h69.37c4.67,0,8.68-1.65,12.05-4.97,3.36-3.31,5.05-7.35,5.05-12.13Z"/>
      </g>
      <path class="cls-3" d="m481.47,1158.51l104.89-198.86,104.9,198.86h-52.85l-52.21-102.48-53.65,102.48h-51.08Z"/>
    </g>
    <g>
      <g>
        <path class="cls-2" d="m641.24,823.43v-32.96h141.79v32.96h-54.36v117.11h-33.08v-117.11h-54.36Z"/>
        <path class="cls-2" d="m744,940.53l79.41-150.55,79.41,150.55h-40.01l-39.52-77.58-40.62,77.58h-38.67Z"/>
        <path class="cls-2" d="m946.6,790.35v117.23h86.1v32.96h-119.17v-150.18h33.08Z"/>
      </g>
      <g>
        <path class="cls-2" d="m511.82,907.46h-22.71v-7.08l-33.08-10.31v50.46h84.88c12.65,0,23.43-4.48,32.35-13.44.12-.13.24-.25.36-.38l-61.81-19.26Z"/>
        <path class="cls-2" d="m489.12,888.27v-6.23h51.8c3.57,0,6.59,1.24,9.06,3.71,2.47,2.47,3.71,5.45,3.71,8.94s-1.26,6.59-3.77,9.06c-1.04,1.02-2.16,1.82-3.37,2.42l34.48,10.74c3.73-6.64,5.61-14.04,5.61-22.22,0-6.49-1.3-12.65-3.89-18.48-2.6-5.84-6.24-10.9-10.94-15.2,4.86-7.38,7.3-15.65,7.3-24.81,0-12.73-4.46-23.55-13.38-32.47-8.92-8.92-19.74-13.38-32.47-13.38h-77.22v87.61l33.08,10.31Zm0-64.84h44.26c3.48,0,6.46,1.24,8.94,3.71,2.47,2.47,3.71,5.49,3.71,9.06s-1.24,6.59-3.71,9.06c-2.47,2.47-5.45,3.71-8.94,3.71h-44.26v-25.54Z"/>
      </g>
      <g>
        <polygon class="cls-2" points="630.54 932.34 630.54 790.35 597.47 790.35 597.47 922.03 630.54 932.34"/>
        <polygon class="cls-2" points="597.47 934.14 597.47 940.53 617.97 940.53 597.47 934.14"/>
      </g>
      <g>
        <path class="cls-2" d="m349.27,844.69v-21.27h46.45c3.48,0,6.48,1.26,9,3.77,2.51,2.51,3.77,5.51,3.77,9s-1.26,6.49-3.77,9c-2.51,2.51-5.51,3.77-9,3.77h-32.75l64.65,20.14c3.35-3.24,6.16-6.97,8.42-11.21,3.61-6.77,5.41-14,5.41-21.71,0-12.73-4.46-23.55-13.38-32.47-8.92-8.92-19.7-13.38-32.35-13.38h-79.53v44.04l33.08,10.31Z"/>
        <polygon class="cls-2" points="316.19 846.5 316.19 940.53 349.27 940.53 349.27 881.92 390.25 881.92 411.65 940.53 445.09 940.53 422.98 879.77 316.19 846.5"/>
      </g>
      <g>
        <path class="cls-2" d="m287.45,780.65c-9.61-16.44-22.64-29.46-39.07-39.07-16.44-9.61-34.39-14.42-53.84-14.42s-37.4,4.81-53.84,14.42c-16.12,9.42-28.93,22.14-38.48,38.12,2.07-3.46,4.29-6.76,6.66-9.91l50.58,15.76c10.16-7.54,21.85-11.32,35.08-11.32,16.56,0,30.74,5.9,42.55,17.71,11.81,11.81,17.71,25.99,17.71,42.55s-5.91,30.71-17.71,42.46c-11.81,11.75-25.99,17.63-42.55,17.63s-30.71-5.87-42.46-17.63c-11.75-11.75-17.63-25.9-17.63-42.46,0-15.38,5.07-28.7,15.21-39.99l-47.45-14.79c-.19.32-.4.62-.59.94-9.61,16.44-14.41,34.39-14.41,53.84s4.8,37.4,14.41,53.84c9.61,16.44,22.63,29.47,39.08,39.07,16.44,9.61,34.39,14.42,53.84,14.42s37.4-4.81,53.84-14.42c16.44-9.61,29.46-22.63,39.07-39.07,9.61-16.44,14.42-34.39,14.42-53.84s-4.81-37.4-14.42-53.84Z"/>
        <path class="cls-2" d="m154.07,790.03c-.67.62-1.34,1.26-1.99,1.92-.02.01-.03.03-.04.04.01-.01.03-.03.04-.04.66-.66,1.32-1.29,1.99-1.92Z"/>
        <path class="cls-2" d="m156.03,788.29c-.34.29-.68.59-1.01.89.34-.3.67-.6,1.01-.89Z"/>
        <path class="cls-2" d="m157.92,786.73c-.21.16-.42.33-.62.5.21-.17.42-.33.62-.5Z"/>
      </g>
      <path class="cls-2" d="m47.3,762.67l47.45,14.79c.78-.86,1.58-1.72,2.41-2.56,2.36-2.37,4.82-4.5,7.38-6.39l-50.58-15.76c-2.38,3.15-4.6,6.47-6.67,9.93Z"/>
    </g>
  </g>
</svg>