<?xml version="1.0" encoding="UTF-8"?>
<svg id="Layer_1" data-name="Layer 1" xmlns="http://www.w3.org/2000/svg" viewBox="0 0 1918.09 479.12">
  <defs>
    <style>
      .cls-1, .cls-2, .cls-3 {
        stroke-width: 0px;
      }

      .cls-2 {
        fill: #231f20;
      }

      .cls-3 {
        fill: #ed2024;
      }
    </style>
  </defs>
  <g>
    <g>
      <g>
        <path class="cls-2" d="m1062.94,206.97v108.82h76.81l-16.61,30.59h-90.9v-139.42h30.71Z"/>
        <path class="cls-2" d="m1409.31,249.53c0,8.51-2.26,16.18-6.77,23.03,4.36,3.99,7.75,8.69,10.16,14.11,2.41,5.42,3.61,11.14,3.61,17.16,0,11.74-4.14,21.77-12.42,30.08-8.28,8.32-18.29,12.47-30.03,12.47h-74.02l-4.78-9.02v-130.4h71.68c11.81,0,21.86,4.14,30.14,12.42,8.28,8.28,12.42,18.33,12.42,30.14Zm-83.54,11.85h41.09c3.23,0,6-1.15,8.3-3.44,2.29-2.29,3.44-5.1,3.44-8.41s-1.15-6.11-3.44-8.41c-2.3-2.29-5.06-3.44-8.3-3.44h-41.09v23.71Zm59.94,42.45c0-3.23-1.15-6-3.44-8.3-2.3-2.29-5.1-3.44-8.41-3.44h-48.09v23.59h48.09c3.23,0,6.02-1.15,8.35-3.44,2.33-2.29,3.5-5.1,3.5-8.41Z"/>
      </g>
      <path class="cls-3" d="m1146.81,346.38l72.71-137.85,72.71,137.85h-36.63l-36.19-71.04-37.19,71.04h-35.41Z"/>
    </g>
    <g>
      <g>
        <path class="cls-2" d="m614.45,237.48v-30.65h131.86v30.65h-50.55v108.9h-30.76v-108.9h-50.55Z"/>
        <path class="cls-2" d="m710.01,346.38l73.85-140,73.85,140h-37.21l-36.75-72.15-37.77,72.15h-35.96Z"/>
        <path class="cls-2" d="m898.42,206.72v109.02h80.07v30.65h-110.83v-139.66h30.76Z"/>
      </g>
      <g>
        <path class="cls-2" d="m494.09,315.62h-21.12v-6.58l-30.76-9.58v46.92h78.94c11.76,0,21.79-4.16,30.08-12.5.12-.12.22-.24.34-.35l-57.48-17.91Z"/>
        <path class="cls-2" d="m472.98,297.78v-5.79h48.18c3.32,0,6.13,1.15,8.42,3.45,2.3,2.3,3.45,5.07,3.45,8.31s-1.17,6.13-3.51,8.43c-.97.95-2.01,1.69-3.13,2.25l32.07,9.99c3.47-6.17,5.22-13.06,5.22-20.67,0-6.03-1.21-11.76-3.62-17.19-2.41-5.43-5.81-10.14-10.18-14.14,4.52-6.86,6.79-14.55,6.79-23.07,0-11.84-4.15-21.9-12.44-30.19-8.29-8.29-18.36-12.44-30.19-12.44h-71.81v81.48l30.76,9.59Zm0-60.3h41.16c3.24,0,6.01,1.15,8.31,3.45,2.3,2.3,3.45,5.11,3.45,8.43s-1.15,6.13-3.45,8.43c-2.3,2.3-5.07,3.45-8.31,3.45h-41.16v-23.75Z"/>
      </g>
      <g>
        <polygon class="cls-2" points="604.5 338.76 604.5 206.72 573.74 206.72 573.74 329.18 604.5 338.76"/>
        <polygon class="cls-2" points="573.74 340.44 573.74 346.38 592.81 346.38 573.74 340.44"/>
      </g>
      <g>
        <path class="cls-2" d="m342.92,257.26v-19.78h43.2c3.24,0,6.03,1.17,8.37,3.51,2.34,2.34,3.51,5.13,3.51,8.37s-1.17,6.03-3.51,8.37c-2.34,2.34-5.13,3.51-8.37,3.51h-30.46l60.12,18.73c3.12-3.01,5.73-6.48,7.83-10.42,3.35-6.29,5.03-13.02,5.03-20.19,0-11.84-4.15-21.9-12.44-30.19-8.29-8.29-18.32-12.44-30.08-12.44h-73.96v40.95l30.76,9.59Z"/>
        <polygon class="cls-2" points="312.16 258.94 312.16 346.38 342.92 346.38 342.92 291.88 381.04 291.88 400.94 346.38 432.04 346.38 411.47 289.88 312.16 258.94"/>
      </g>
      <g>
        <path class="cls-2" d="m285.44,197.7c-8.94-15.29-21.05-27.4-36.34-36.34-15.29-8.94-31.98-13.41-50.07-13.41s-34.78,4.47-50.07,13.41c-14.99,8.76-26.9,20.59-35.78,35.45,1.92-3.21,3.99-6.29,6.19-9.22l47.03,14.66c9.45-7.01,20.32-10.53,32.62-10.53,15.4,0,28.59,5.49,39.57,16.47,10.98,10.98,16.47,24.17,16.47,39.57s-5.49,28.56-16.47,39.49c-10.98,10.93-24.17,16.39-39.57,16.39s-28.56-5.46-39.49-16.39c-10.93-10.93-16.39-24.09-16.39-39.49,0-14.3,4.72-26.69,14.15-37.19l-44.13-13.75c-.18.3-.37.57-.55.87-8.94,15.29-13.4,31.98-13.4,50.07s4.47,34.78,13.4,50.07c8.94,15.29,21.05,27.4,36.34,36.34,15.29,8.94,31.98,13.41,50.07,13.41s34.78-4.47,50.07-13.41c15.29-8.94,27.4-21.05,36.34-36.34,8.94-15.29,13.41-31.98,13.41-50.07s-4.47-34.78-13.41-50.07Z"/>
        <path class="cls-2" d="m161.4,206.42c-.62.58-1.24,1.17-1.85,1.78-.01.01-.03.03-.04.04.01-.01.03-.03.04-.04.61-.61,1.23-1.2,1.85-1.78Z"/>
        <path class="cls-2" d="m163.22,204.81c-.32.27-.63.55-.94.83.31-.28.63-.56.94-.83Z"/>
        <path class="cls-2" d="m164.98,203.36c-.19.15-.39.31-.58.46.19-.16.39-.31.58-.46Z"/>
      </g>
      <path class="cls-3" d="m62.11,180.98l44.13,13.75c.72-.8,1.47-1.6,2.24-2.38,2.2-2.21,4.49-4.18,6.86-5.95l-47.03-14.66c-2.21,2.93-4.28,6.01-6.2,9.23Z"/>
    </g>
  </g>
  <g>
    <circle class="cls-1" cx="1554.59" cy="122.56" r="12.67"/>
    <circle class="cls-1" cx="1524.36" cy="329.29" r="15.74"/>
    <circle class="cls-1" cx="1839.67" cy="218.74" r="12.67"/>
    <g>
      <circle class="cls-3" cx="1667.65" cy="256.94" r="46.14"/>
      <g>
        <path class="cls-2" d="m1737.33,219.91c8.96,16.86,11.18,35.49,7.63,52.84l47.59,14.99c7.32-29.67,4.17-62.05-11.3-91.17-13.91-26.18-35.59-45.59-60.68-56.9l-17.91,46.54c14.31,7.07,26.61,18.53,34.67,33.7Z"/>
        <path class="cls-2" d="m1597.91,293.99c-3.61-6.79-6.12-13.87-7.61-21.04l-49.64,5.14c2.23,13.37,6.62,26.61,13.33,39.24,32.15,60.51,105.72,84.83,167.2,56.61l-23.4-44.04c-37.15,15.41-80.62.33-99.87-35.91Z"/>
        <path class="cls-2" d="m1588.67,257.85c-.3-28.56,14.95-56.29,41.9-70.61,18.5-9.83,39.15-11.56,57.88-6.42l17.92-46.56c-31.77-10.04-67.4-7.81-99.14,9.06-45.38,24.11-70.41,71.53-68.18,119.67l49.61-5.13Z"/>
        <path class="cls-3" d="m1734.6,366.81c25.37-15.44,43.65-38.47,53.46-64.58l-47.56-14.98c-5.86,14.12-15.83,26.61-29.31,35.51l23.4,44.04Z"/>
      </g>
    </g>
  </g>
</svg>